P2					
6	8				
255					
255	255	255	255	255	255
255	255	0	0	230	255
255	127	255	255	255	255
255	127	0	0	255	255
255	0	255	255	0	255
255	40	255	255	127	255
255	255	0	0	255	255
255	255	255	255	255	255
