P2					
6	8				
255					
255	255	255	255	255	255
255	0	0	127	60	255
255	255	255	255	127	255
255	255	255	220	190	255
255	255	255	150	255	255
255	255	255	70	255	255
255	255	255	0	255	255
255	255	255	255	255	255
