P2					
6	8				
255					
255	255	255	255	255	255
255	255	127	127	255	255
255	127	255	255	127	255
255	255	255	0	255	255
255	255	255	255	0	255
255	127	200	255	127	255
255	255	0	0	255	255
255	255	255	255	255	255
