P2					
6	8				
255					
255	255	255	255	255	255
255	255	127	127	255	255
255	127	255	255	127	255
255	255	255	230	127	255
255	255	230	150	255	255
255	127	150	255	255	255
255	0	0	0	0	255
255	255	255	255	255	255
