P2					
6	8				
255					
255	255	255	255	255	255
255	80	0	0	40	255
255	127	255	255	255	255
255	127	0	0	200	255
255	255	255	255	0	255
255	200	255	255	127	255
255	255	0	0	255	255
255	255	255	255	255	255
