P2
6	80
255
255	255	255	255	255	255
255	255	255	127	255	255
255	255	127	0	255	255
255	127	255	0	255	255
255	255	255	0	255	255
255	255	255	0	255	255
255	0	0	0	0	255
255	255	255	255	255	255
255	255	255	255	255	255
255	255	255	127	255	255
255	255	127	0	255	255
255	127	255	0	255	255
255	255	255	0	255	255
255	255	255	0	255	255
255	0	0	0	0	255
255	255	255	255	255	255
255	255	255	255	255	255
255	80	0	0	40	255
255	127	255	255	255	255
255	127	0	0	200	255
255	255	255	255	0	255
255	200	255	255	127	255
255	255	0	0	255	255
255	255	255	255	255	255
255	255	255	255	255	255
255	80	0	0	40	255
255	127	255	255	255	255
255	127	0	0	200	255
255	255	255	255	0	255
255	200	255	255	127	255
255	255	0	0	255	255
255	255	255	255	255	255
255	255	255	255	255	255
255	255	255	127	255	255
255	255	127	0	255	255
255	127	255	0	255	255
255	255	255	0	255	255
255	255	255	0	255	255
255	0	0	0	0	255
255	255	255	255	255	255
255	255	255	255	255	255
255	255	0	0	230	255
255	127	255	255	255	255
255	127	0	0	255	255
255	0	255	255	0	255
255	40	255	255	127	255
255	255	0	0	255	255
255	255	255	255	255	255
255	255	255	255	255	255
255	80	0	0	40	255
255	127	255	255	255	255
255	127	0	0	200	255
255	255	255	255	0	255
255	200	255	255	127	255
255	255	0	0	255	255
255	255	255	255	255	255
255	255	255	255	255	255
255	255	127	127	255	255
255	127	255	255	127	255
255	255	255	230	127	255
255	255	230	150	255	255
255	127	150	255	255	255
255	0	0	0	0	255
255	255	255	255	255	255
255	255	255	255	255	255
255	255	255	127	255	255
255	255	127	0	255	255
255	127	255	0	255	255
255	255	255	0	255	255
255	255	255	0	255	255
255	0	0	0	0	255
255	255	255	255	255	255
255	255	255	255	255	255
255	255	255	127	255	255
255	255	127	0	255	255
255	127	255	0	255	255
255	255	255	0	255	255
255	255	255	0	255	255
255	0	0	0	0	255
255	255	255	255	255	255
